<?xml version="1.0" encoding="iso-8859-1"?>
<!-- Generator: Adobe Illustrator 28.5.0, SVG Export Plug-In . SVG Version: 9.03 Build 54727)  -->
<svg version="1.1" id="Capa_1" xmlns="http://www.w3.org/2000/svg" xmlns:xlink="http://www.w3.org/1999/xlink" x="0px" y="0px"
	 viewBox="0 0 530.7 157.1" style="enable-background:new 0 0 530.7 157.1;" xml:space="preserve">
<g>
	<path style="fill:#EC641C;" d="M72.94,73.63c0.25,0.22,0.26,0.96,0.26,17.57c0,17.14,0,17.34-0.28,17.62
		c-0.28,0.28-0.47,0.28-7.08,0.28c-6.61,0-6.81-0.01-7.08-0.28c-0.28-0.28-0.28-0.47-0.28-17.57c0-17.1,0-17.29,0.28-17.57
		c0.28-0.28,0.47-0.28,7.11-0.28C72.01,73.4,72.71,73.42,72.94,73.63L72.94,73.63L72.94,73.63z M123.43,51.36l0.35,0.35v56.64
		l-0.29,0.37l-0.29,0.37H110.2l-0.29-0.37l-0.29-0.37V51.71l0.35-0.35l0.35-0.35h12.78L123.43,51.36L123.43,51.36z M84.56,51.23
		c3.66,0.6,6.8,2.3,9.44,5.08c1.78,1.88,2.93,3.8,3.71,6.17c0.73,2.24,0.72,1.71,0.72,24.67c0,21.19,0,21.38-0.28,21.66
		c-0.27,0.28-0.47,0.28-6.71,0.28c-5.92,0-6.45-0.02-6.73-0.25l-0.3-0.25l-0.04-18.98c-0.04-17.83-0.06-19.04-0.3-19.83
		c-0.94-3.13-3.4-5.56-6.46-6.39c-0.85-0.23-2.05-0.25-15.09-0.27c-7.79-0.01-14.33,0.04-14.54,0.1c-0.2,0.07-0.44,0.28-0.53,0.47
		c-0.12,0.26-0.16,6.27-0.16,22.59c0,22.05,0,22.24-0.28,22.52c-0.27,0.28-0.47,0.28-6.7,0.28c-5.58,0-6.46-0.03-6.73-0.22
		l-0.32-0.22V80.12c0-28.38,0-28.54,0.28-28.82c0.28-0.28,0.44-0.28,25.04-0.28C79.33,51.03,83.53,51.06,84.56,51.23L84.56,51.23
		L84.56,51.23z M71.35,5.02c-0.03,0.03-1.5,0.1-3.25,0.14C56.89,5.48,45.16,7.3,37.78,9.86c-7.29,2.54-13.02,6.09-17.86,11.06
		c-3,3.09-5.21,6.18-7.19,10.08C9.54,37.3,7.92,43.6,6.42,55.62C5.34,64.22,4.98,70.45,5,79.78c0.03,11.18,0.95,21.41,2.9,32.23
		c1.49,8.22,4.35,14.79,9.1,20.84c1.51,1.93,1.65,2.08,3.33,3.79c6.01,6.13,13.19,10.22,21.63,12.32c4.3,1.07,10.89,2.04,16.93,2.49
		c5.81,0.43,13.77,0.65,23.73,0.65c20.03,0,32.62-2.07,42.64-7.01c4.42-2.18,7.88-4.66,11.42-8.2c5.13-5.13,8.32-10.39,10.76-17.72
		c2.72-8.18,3.88-15.39,4.19-26.07c0.05-1.75,0.11-3.22,0.14-3.26c0.08-0.15,0.27-9.91,0.27-14.09c0-9.41-0.43-16.39-1.42-23.27
		c-1.28-8.88-2.93-14.8-5.66-20.37c-2.34-4.78-4.9-8.31-8.62-11.92c-3.35-3.25-7.01-5.79-11.51-7.99
		c-7.65-3.74-15.96-5.74-26.42-6.37C94,5.57,93.58,5.55,90.06,5.4c-1.91-0.08-4.14-0.18-4.96-0.22C83.22,5.09,71.44,4.95,71.35,5.02
		L71.35,5.02z"/>
	<path style="fill:#FFFFFF;" d="M80.88,50.62H34.14c-0.53,0-0.95,0.43-0.95,0.97v58.18c0,0.53,0.42,0.96,0.95,0.96h12.27
		c0.52,0,0.95-0.43,0.95-0.96V64.11c0-0.53,0.42-0.96,0.95-0.96h26.44c7.43,0,9.54,5.92,9.54,9.74v36.9c0,0.53,0.43,0.96,0.95,0.96
		h12.27c0.52,0,0.95-0.43,0.95-0.96V68.5c0-3.41-0.39-8.3-4.62-12.61C89.42,51.39,85.39,50.62,80.88,50.62L80.88,50.62z
		 M122.77,50.62H110.5c-0.53,0-0.95,0.43-0.95,0.97v58.18c0,0.53,0.43,0.96,0.95,0.96h12.27c0.52,0,0.95-0.43,0.95-0.96V51.59
		C123.72,51.05,123.29,50.62,122.77,50.62L122.77,50.62z"/>
	<path style="fill:#FFFFFF;" d="M72.28,73.38H59.4c-0.53,0-0.96,0.43-0.96,0.97v35.43c0,0.53,0.43,0.96,0.96,0.96h12.88
		c0.52,0,0.95-0.43,0.95-0.96V74.35C73.23,73.82,72.8,73.38,72.28,73.38L72.28,73.38z"/>
	<path style="fill:#8A8B8C;" d="M315.46,81.63c0.89,0.06,1.79,0.15,1.98,0.19c0.19,0.04,0.9,0.12,1.56,0.16
		c0.66,0.05,1.33,0.11,1.49,0.13c0.16,0.03,0.33,0.05,0.39,0.06c0.14,0.01,0,3.98-0.2,5.94c-0.16,1.54-0.64,3.29-1.1,4.04
		c-0.61,0.98-2.34,2.19-3.44,2.41c-0.18,0.03-0.61,0.17-0.96,0.3c-1.19,0.44-3.9,0.62-8.64,0.57c-2.46-0.02-4.72-0.09-5.03-0.14
		c-1.79-0.29-3.55-0.85-4.54-1.42c-0.69-0.4-1.79-1.76-2.26-2.8c-0.61-1.35-0.77-4.27-0.28-5.22c0.21-0.41,1.05-1.51,1.57-2.07
		c0.5-0.53,2.75-1.4,4.14-1.61c1.22-0.18,4.29-0.54,5.19-0.61C306.63,81.48,313.81,81.52,315.46,81.63L315.46,81.63L315.46,81.63z
		 M378.11,62.64c4.08,0.42,6.76,1.49,8.49,3.37c2.08,2.26,2.64,4.35,2.82,10.36c0.22,7.62-0.25,11.9-1.54,14.03
		c-0.83,1.35-2.83,3.06-4.48,3.82c-2.35,1.08-4.11,1.35-8.64,1.35c-3.57,0-4.57-0.11-6.92-0.76c-1.85-0.51-3.54-1.47-4.77-2.71
		c-0.74-0.75-1.71-2.52-2.07-3.83c-0.64-2.26-1.05-5.58-1.04-8.37c0.01-6.17,0.54-9.57,1.89-12.05c0.61-1.12,2.07-2.82,2.73-3.18
		c0.77-0.41,1.9-0.99,2.32-1.17c0.46-0.2,2.68-0.73,3.68-0.86C371.77,62.47,376.48,62.47,378.11,62.64L378.11,62.64L378.11,62.64z
		 M513.25,52.56c-0.32,0.06-0.51,0.18-0.55,0.37c-0.04,0.16-0.07,11.9-0.09,26.1c-0.01,23.81,0,25.83,0.22,26.05
		c0.21,0.21,0.87,0.24,5.59,0.31c2.95,0.04,5.79,0.03,6.32-0.03l0.96-0.1V52.61l-0.8-0.09C523.94,52.41,513.93,52.44,513.25,52.56
		L513.25,52.56z M253.27,52.7c-0.19,0.34-0.15,52.34,0.04,52.53c0.15,0.15,12.78,0.15,12.94,0c0.14-0.14,0.12-52.49-0.02-52.63
		c-0.05-0.05-2.95-0.11-6.45-0.14C253.55,52.42,253.42,52.42,253.27,52.7L253.27,52.7L253.27,52.7z M223.09,52.45
		c-0.54,0.11-0.97,0.5-1.34,1.21c-0.16,0.3-0.32,0.57-0.37,0.61c-0.05,0.04-0.3,0.39-0.57,0.78c-0.27,0.39-0.61,0.86-0.77,1.05
		c-0.15,0.19-0.54,0.65-0.85,1.02c-0.82,0.99-1.11,1.4-1.49,2.07c-0.18,0.33-0.39,0.6-0.45,0.6c-0.06,0-0.11,0.08-0.11,0.18
		s-0.13,0.27-0.28,0.39c-0.16,0.11-0.28,0.28-0.28,0.37c0,0.09-0.1,0.2-0.21,0.25c-0.12,0.04-0.21,0.17-0.21,0.29
		c0,0.11-0.05,0.23-0.11,0.25c-0.22,0.1-2.73,3.26-2.73,3.44c0,0.04-0.11,0.2-0.25,0.35c-0.14,0.15-0.27,0.3-0.39,0.46
		c-0.89,1.15-1.64,2.15-2.04,2.73c-0.57,0.83-1.46,1.74-1.53,1.55c-0.02-0.07-0.56-0.83-1.18-1.69c-1.31-1.79-2.24-3.08-2.54-3.53
		c-0.12-0.17-0.47-0.63-0.79-1.01c-0.32-0.38-0.89-1.17-1.27-1.76c-0.38-0.58-0.76-1.13-0.85-1.2c-0.09-0.08-0.66-0.84-1.27-1.7
		c-0.61-0.86-1.44-1.97-1.84-2.48c-0.4-0.51-0.94-1.24-1.2-1.63c-0.26-0.39-0.56-0.79-0.66-0.9c-0.35-0.35-1.05-1.44-0.93-1.45
		c0.06-0.01-0.01-0.06-0.17-0.13c-0.16-0.07-3.73-0.13-7.94-0.13c-6.08-0.01-7.71,0.03-7.91,0.17c-0.23,0.16-0.23,0.25-0.08,0.81
		c0.2,0.74,0.34,0.96,2.14,3.18c0.75,0.94,1.65,2.06,1.99,2.5c0.34,0.44,1.13,1.44,1.75,2.22c0.62,0.78,1.26,1.59,1.42,1.81
		c0.16,0.22,0.38,0.49,0.5,0.62c0.43,0.44,1.67,1.94,2.42,2.93c0.42,0.55,1.29,1.64,1.94,2.41c1.41,1.67,1.42,1.69,1.86,2.32
		c0.19,0.27,0.38,0.53,0.42,0.57c0.04,0.04,0.27,0.33,0.5,0.64c0.23,0.31,0.48,0.64,0.57,0.72c0.08,0.09,0.33,0.4,0.56,0.69
		c0.23,0.29,0.6,0.73,0.83,0.98c0.23,0.25,0.68,0.8,1,1.23c0.32,0.43,0.61,0.81,0.65,0.85c0.04,0.04,0.41,0.47,0.81,0.97
		c0.64,0.77,0.72,0.93,0.57,1.14c-0.85,1.17-1.92,2.51-2.45,3.08c-0.36,0.38-0.75,0.85-0.89,1.04c-0.13,0.19-0.34,0.48-0.47,0.64
		c-0.84,1.03-1.54,1.92-1.54,1.97c0,0.04-0.14,0.22-0.32,0.4c-0.36,0.37-1.35,1.57-1.64,1.98c-0.1,0.15-0.41,0.5-0.67,0.79
		c-0.27,0.29-0.49,0.58-0.49,0.64c0,0.06-0.08,0.2-0.18,0.29c-0.1,0.1-0.37,0.42-0.6,0.72c-0.61,0.78-1.24,1.52-1.5,1.77
		c-0.12,0.12-0.56,0.66-0.97,1.2c-0.8,1.06-1.6,2.04-2.07,2.53c-0.16,0.17-0.33,0.41-0.39,0.55c-0.05,0.14-0.16,0.25-0.24,0.25
		c-0.08,0-0.15,0.1-0.15,0.21c0,0.12-0.05,0.21-0.11,0.21c-0.06,0-0.23,0.19-0.36,0.43c-0.14,0.24-0.39,0.58-0.56,0.76
		c-0.17,0.18-0.5,0.57-0.72,0.86c-0.23,0.29-0.58,0.71-0.78,0.93c-0.2,0.23-0.62,0.77-0.93,1.21c-0.31,0.44-0.71,0.95-0.89,1.14
		c-0.18,0.19-0.32,0.4-0.32,0.48c0,0.07-0.05,0.14-0.11,0.14c-0.21,0-0.6,0.82-0.6,1.27c0,0.33,0.08,0.48,0.32,0.57
		c0.18,0.07,3.69,0.12,7.94,0.1c7.43-0.03,7.63-0.03,7.83-0.31c0.11-0.15,0.5-0.61,0.86-1.02c0.36-0.4,0.85-1.02,1.09-1.36
		c0.41-0.58,1.46-2,1.87-2.5c0.1-0.12,0.49-0.6,0.87-1.07c0.38-0.47,1.13-1.46,1.66-2.2c0.53-0.74,1.05-1.41,1.15-1.49
		c0.16-0.12,0.51-0.56,1.26-1.56c1.05-1.4,1.84-2.42,1.91-2.48c0.05-0.04,0.44-0.58,0.87-1.2c0.88-1.26,1.69-2.2,1.91-2.2
		c0.08,0,0.36,0.33,0.61,0.73c0.26,0.4,0.85,1.2,1.31,1.78c0.46,0.58,1.26,1.67,1.77,2.43c0.95,1.39,1.39,1.99,1.85,2.51
		c0.38,0.42,1.45,1.89,1.45,1.98c0,0.05,0.27,0.45,0.6,0.89c0.33,0.44,0.73,1,0.9,1.24c0.16,0.24,0.4,0.55,0.52,0.71
		c0.58,0.7,1.2,1.51,1.52,1.98c0.2,0.28,0.42,0.59,0.5,0.68c0.32,0.36,1.06,1.5,1.06,1.63c0,0.08,0.19,0.3,0.43,0.51l0.44,0.37
		l7.46,0c4.1,0,7.6-0.04,7.77-0.08c0.24-0.06,0.32-0.21,0.36-0.65c0.03-0.35-0.02-0.65-0.13-0.76c-0.1-0.1-0.18-0.22-0.18-0.26
		s-0.21-0.28-0.46-0.54c-0.25-0.26-0.56-0.65-0.67-0.88c-0.12-0.23-0.62-0.9-1.13-1.49c-0.51-0.59-1.11-1.33-1.35-1.64
		c-0.89-1.2-2.54-3.26-2.65-3.31c-0.06-0.03-0.11-0.13-0.11-0.23c0-0.1-0.14-0.3-0.3-0.45c-0.16-0.15-0.66-0.75-1.11-1.33
		c-1.28-1.69-2.06-2.68-2.98-3.83c-0.56-0.7-1.11-1.41-1.66-2.13c-0.44-0.58-0.84-1.09-0.89-1.13c-0.11-0.09-1.72-2.21-1.91-2.52
		c-0.08-0.13-0.28-0.37-0.45-0.55c-0.39-0.41-1.61-1.99-1.61-2.09c0-0.04-0.14-0.23-0.32-0.42c-1.13-1.22-1.95-2.39-1.95-2.8
		c0-0.16,0.15-0.35,0.35-0.44c0.19-0.09,0.35-0.22,0.35-0.28c0-0.07,0.16-0.26,0.35-0.42c0.19-0.17,0.53-0.57,0.74-0.88
		c0.57-0.85,1.28-1.75,2.14-2.7c0.91-1.01,0.97-1.09,1.6-1.91c0.27-0.35,0.53-0.67,0.58-0.71c0.05-0.04,0.38-0.45,0.72-0.92
		c0.34-0.47,0.88-1.14,1.18-1.5c0.62-0.73,0.7-0.82,1.65-2.04c0.37-0.47,0.76-0.95,0.86-1.06c0.1-0.12,0.53-0.66,0.95-1.2
		c0.42-0.55,1.1-1.41,1.52-1.91c0.42-0.51,0.86-1.05,0.98-1.2c0.12-0.16,0.49-0.58,0.8-0.94c0.32-0.36,0.65-0.74,0.72-0.85
		c0.08-0.1,0.33-0.45,0.56-0.76c0.47-0.63,1.6-1.99,2.68-3.23c0.75-0.86,1.2-1.74,1.21-2.39c0.01-0.32-0.06-0.39-0.45-0.46
		C237.55,52.4,223.61,52.34,223.09,52.45L223.09,52.45L223.09,52.45z M434.59,51.79c-0.03,0.03-0.56,0.09-1.19,0.14
		c-0.62,0.05-1.55,0.15-2.06,0.22c-0.51,0.07-1.17,0.17-1.48,0.21c-1.31,0.18-3.93,1-5.1,1.59c-1.26,0.63-3.62,2.34-4.33,3.14
		c-0.72,0.8-2.23,3.67-2.52,4.76c-0.3,1.16-0.61,3.14-0.73,4.59c-0.15,1.91-0.11,38.63,0.04,38.78c0.15,0.14,12.64,0.16,12.79,0.02
		c0.06-0.06,0.15-8.35,0.21-18.42c0.05-10.07,0.15-18.54,0.2-18.81c0.21-1.1,0.69-2.48,1.03-2.93c0.47-0.61,1.51-1.36,2.31-1.65
		c1.63-0.6,3.45-0.78,7.01-0.72c4.32,0.08,5.47,0.32,6.83,1.44c1.28,1.06,1.67,1.91,1.84,4.13c0.07,0.9,0.15,9.38,0.16,18.84
		c0.02,9.47,0.07,17.41,0.11,17.66c0.07,0.41,0.13,0.45,0.74,0.51c1.1,0.11,12.03,0.04,12.15-0.07c0.06-0.06,0.13-8.25,0.15-18.2
		c0.02-9.95,0.07-18.45,0.11-18.89c0.04-0.43,0.17-1.17,0.3-1.63c0.13-0.46,0.26-0.98,0.31-1.15c0.12-0.52,1.37-1.65,2.12-1.92
		c2.26-0.81,8.06-1.01,11.5-0.39c2.04,0.37,3.75,1.54,4.17,2.88c0.69,2.2,0.71,2.7,0.8,21.52c0.04,9.71,0.13,17.71,0.2,17.78
		c0.18,0.18,12,0.25,12.47,0.07l0.4-0.15l-0.06-18.95c-0.04-10.42-0.1-19.3-0.15-19.73c-0.4-3.62-0.81-5.13-1.86-7.01
		c-0.93-1.66-2.28-3.07-3.98-4.18c-4.33-2.81-8.12-3.61-16.49-3.49c-2.38,0.03-4.55,0.1-4.82,0.14c-0.27,0.04-0.82,0.11-1.21,0.15
		c-1.69,0.18-3.81,0.62-5.67,1.19c-0.24,0.07-1.1,0.47-1.91,0.88c-1.38,0.69-1.56,0.75-2.54,0.76c-0.99,0.01-1.15-0.03-2.48-0.67
		c-2.19-1.06-3.72-1.52-6.52-1.95c-3.23-0.5-3.95-0.55-8.31-0.54C436.65,51.74,434.62,51.76,434.59,51.79L434.59,51.79L434.59,51.79
		z M369.79,51.74c-2.06,0.1-2.56,0.16-4.89,0.56c-2.12,0.36-3.46,0.73-4.95,1.37c-1.06,0.45-1.52,0.69-2.92,1.55
		c-0.15,0.09-0.67,0.4-1.15,0.69c-1.02,0.61-2.91,2.52-4.15,4.18c-0.98,1.32-2.7,4.7-2.7,5.31c0,0.12-0.09,0.4-0.2,0.61
		c-0.41,0.79-1.21,4.54-1.51,7.03c-0.26,2.24-0.29,3.08-0.24,7.15c0.08,6.01,0.36,7.82,1.98,12.73c0.6,1.84,1.39,3.25,2.9,5.23
		c1.02,1.33,3.06,3.35,3.87,3.82c0.35,0.2,0.67,0.41,0.71,0.45c0.13,0.16,0.63,0.43,1.91,1.06c1.37,0.67,2.16,0.95,3.78,1.36
		c0.57,0.14,1.38,0.36,1.81,0.47c2.39,0.66,5.98,0.91,12.32,0.87c4.18-0.03,5.14-0.07,6.66-0.33c3.1-0.52,6.38-1.48,8.22-2.41
		c1.39-0.71,2.05-1.08,2.2-1.24c0.08-0.09,0.68-0.6,1.35-1.14c1.5-1.22,2.12-1.82,2.12-2.02c0-0.09,0.06-0.16,0.12-0.16
		c0.12,0,1.49-1.97,1.5-2.15c0-0.05,0.13-0.24,0.29-0.42c0.16-0.18,0.42-0.55,0.58-0.83c0.36-0.62,1.33-3.01,1.33-3.28
		c0-0.11,0.06-0.26,0.13-0.33c0.37-0.39,1.26-5.17,1.59-8.46c0.15-1.6,0.11-8.94-0.06-9.74c-0.04-0.19-0.11-0.77-0.16-1.27
		c-0.37-3.78-1.52-7.79-2.86-9.95c-0.18-0.29-0.33-0.57-0.33-0.63c0-0.05-0.34-0.55-0.75-1.1c-0.42-0.55-0.94-1.26-1.17-1.57
		c-0.23-0.31-0.79-0.92-1.25-1.35c-0.81-0.76-2.54-2.13-2.69-2.13c-0.04,0-0.36-0.19-0.72-0.43c-0.98-0.66-3.12-1.63-4.79-2.18
		c-1.48-0.48-3.9-0.93-6.69-1.23C379.35,51.67,372.51,51.6,369.79,51.74L369.79,51.74L369.79,51.74z M305.83,50.92
		c-0.04,0.03-0.98,0.1-2.1,0.15c-1.11,0.05-2.07,0.11-2.12,0.14c-0.05,0.03-0.67,0.1-1.37,0.15c-0.7,0.05-1.31,0.12-1.36,0.16
		c-0.05,0.03-0.54,0.1-1.07,0.15c-2.74,0.24-6.92,1.19-9.33,2.11c-0.54,0.21-1.11,0.41-1.24,0.46c-0.58,0.18-0.63,0.6-0.73,5.92
		c-0.1,5.7-0.12,5.57,0.87,5.69c0.32,0.04,0.94-0.05,1.53-0.23c2.2-0.66,3.08-0.91,5.39-1.49c2.94-0.74,6.19-1.44,8-1.71
		c3.1-0.47,10.15-0.38,11.6,0.15c0.28,0.1,0.99,0.3,1.57,0.43c1.21,0.27,2.17,0.73,3.22,1.52c0.77,0.58,1.24,1.44,1.62,2.95
		c0.25,0.99,0.27,1.11,0.37,2.61l0.09,1.4l-1.26-0.1c-5-0.41-10.69-0.58-13.16-0.38l-3.97,0.31c-4,0.31-8.96,1.35-11.44,2.38
		c-3.26,1.36-6.39,3.87-7.29,5.82c-1.84,4.02-2.23,9.16-1.05,13.95c0.45,1.83,0.83,2.87,1.46,3.94c0.22,0.37,0.4,0.74,0.4,0.82
		c0,0.41,3.32,3.34,4.96,4.38c0.43,0.27,0.8,0.54,0.82,0.6c0.02,0.06,0.13,0.11,0.24,0.11c0.1,0,0.62,0.2,1.16,0.44
		c0.53,0.24,1.48,0.58,2.1,0.77c0.62,0.18,1.42,0.43,1.77,0.54c0.35,0.12,1.69,0.39,2.98,0.61c2.33,0.4,2.35,0.4,8.85,0.4
		c6.57,0,8.3-0.09,10.63-0.58c3.24-0.68,4.72-1.08,5.95-1.62c2.57-1.14,3.23-1.52,4.52-2.69c0.82-0.74,1.95-1.9,2.32-2.39
		c0.68-0.9,2.15-3.95,2.44-5.05c0.16-0.62,0.35-1.24,0.42-1.37c0.29-0.53,0.79-4.1,0.94-6.71c0.11-1.96,0.1-9.38-0.02-11.48
		c-0.14-2.53-0.47-5.03-0.85-6.52c-0.7-2.73-1.1-3.84-2.01-5.66c-2.3-4.58-7.06-8.36-12.58-9.97c-0.91-0.27-2.76-0.61-4.32-0.81
		c-0.35-0.04-0.8-0.11-0.99-0.15C313.28,50.98,305.91,50.84,305.83,50.92L305.83,50.92L305.83,50.92z"/>
</g>
</svg>
