<svg width="77" height="51" viewBox="0 0 77 51" fill="none" xmlns="http://www.w3.org/2000/svg">
<path d="M26.1182 13.8384C26.7006 13.6447 27.2831 13.5789 27.9316 13.6431V13.644C28.821 13.7709 29.3934 14.2735 29.7803 15.1099V15.1108C30.1204 15.8383 30.2058 16.6035 30.2275 17.3892L30.2354 18.1812C30.169 19.6941 29.9052 21.1431 29.5742 22.5962L29.5732 22.5981C28.6432 26.9732 27.7822 31.3393 26.8525 35.646L26.8516 35.6499C26.6512 36.7827 26.5827 37.8573 26.8525 39.0015C26.9899 39.6169 27.3381 40.1843 27.9805 40.3979C28.4058 40.5394 28.8952 40.4675 29.29 40.4019L29.293 40.4009C30.2564 40.202 31.2203 39.9872 32.1826 39.772C33.1452 39.5567 34.1068 39.3416 35.0684 39.1431L35.0713 39.1421C36.3491 38.844 37.6311 38.542 38.915 38.2378L46.6279 36.4038C47.9116 36.0996 49.1933 35.7975 50.4707 35.4995H50.4717C53.1928 34.8373 55.9142 34.1912 58.6357 33.5454C61.3558 32.9 64.0764 32.2543 66.7969 31.5923C67.4909 31.4538 68.042 30.97 68.502 30.5767L68.5039 30.5747C69.8403 29.3745 70.9072 27.9098 71.8389 26.3169C71.8754 26.2768 71.9107 26.2267 71.9385 26.1851C71.9734 26.1328 72.0008 26.0925 72.0254 26.0679L72.0312 26.063L72.0352 26.0571C72.1287 25.9327 72.2128 25.8685 72.292 25.8442C72.368 25.821 72.4569 25.8287 72.5742 25.8872C72.6098 25.9049 72.6498 25.9227 72.6885 25.9399C72.7279 25.9575 72.7674 25.976 72.8066 25.9956C72.8858 26.0351 72.9575 26.0792 73.0127 26.1343L73.0195 26.1411L73.0283 26.146C73.2151 26.2702 73.3477 26.4212 73.4131 26.5952C73.4779 26.7678 73.4811 26.9743 73.3887 27.2202C72.462 29.6638 71.2733 31.8999 69.3643 33.6733C68.5101 34.4686 67.5049 34.8683 66.4238 35.1772L65.9561 35.3052C61.974 36.2654 57.9753 37.2258 53.9766 38.186C49.9772 39.1464 45.977 40.1065 41.9941 41.0669C36.6813 42.3259 31.3755 43.6501 25.998 44.9087C25.0264 45.1349 24.1432 44.972 23.4639 44.5015C22.7843 44.0308 22.2991 43.2454 22.1367 42.2085V42.2065L22.0742 41.7896C21.9568 40.8155 22.0218 39.8317 22.1377 38.7905C22.8008 32.8356 24.0599 27.0114 25.3213 21.1821C25.5208 20.385 25.6574 19.5755 25.5215 18.7612V18.7593C25.4532 18.3848 25.3122 18.1004 25.0752 17.9624C24.8349 17.8225 24.5316 17.8531 24.1875 18.0239C23.4338 18.3658 22.8898 18.9789 22.4238 19.5767L22.4229 19.5786C21.2173 21.1825 20.4816 23.0513 20.0811 25.0493C19.0854 29.8841 18.0904 34.6527 17.0947 39.4214H17.0938V39.4263C17.0279 39.8205 16.9453 40.1987 16.8623 40.5796C16.7796 40.959 16.6966 41.3417 16.6299 41.7407C16.4355 42.7107 15.9844 43.4063 15.0928 43.7876C14.3632 44.0523 13.6477 44.3117 12.8691 44.3765H12.3584C12.1158 44.3461 11.9454 44.2421 11.8486 44.0972C11.7517 43.9518 11.7172 43.7502 11.7783 43.5063L11.7803 43.5073L11.7812 43.4995C11.9799 42.3765 12.2449 41.2538 12.5107 40.0601V40.0591C12.7928 38.7015 13.0789 37.3435 13.3672 35.9858L15.1055 27.8394C15.3939 26.4813 15.6807 25.1232 15.9629 23.7651V23.7612C16.095 22.9704 16.2308 22.1602 16.0957 21.3472H16.0967C16.029 20.8404 15.8556 20.47 15.5576 20.2974C15.2937 20.1445 14.9628 20.1635 14.5869 20.3306L14.4229 20.4116C13.6691 20.756 13.1266 21.4375 12.6631 22.0981L12.6611 22.1001C11.725 23.5014 11.1234 25.0353 10.7891 26.6343C10.3901 28.1605 10.1237 29.7574 9.79297 31.3413L9.79199 31.3423C8.9289 35.6483 8.00114 39.9494 7.1377 44.1909V44.1919C6.94494 45.153 6.37094 45.8472 5.41699 46.1011C4.61655 46.3008 3.90415 46.4937 3.12793 46.4292H3.12695C2.87096 46.3968 2.67833 46.3338 2.55078 46.2349C2.4282 46.1397 2.35645 46.0043 2.35645 45.8003C2.35645 45.7336 2.35655 45.6555 2.36426 45.5786C2.37209 45.5006 2.38802 45.4324 2.41309 45.3823L2.41797 45.3706L2.4209 45.3579C2.98516 42.7415 3.53347 40.1253 4.08105 37.5093C4.35489 36.2011 4.62842 34.8926 4.9043 33.5845L5.74023 29.6606C6.40374 26.549 7.13249 23.4364 7.92871 20.3247C7.99422 20.0963 8.07742 19.8517 8.16016 19.604C8.24292 19.3563 8.32649 19.1058 8.39355 18.8716L8.39551 18.8628C8.45312 18.5763 8.68099 18.3987 8.95215 18.1958C9.46105 17.8799 10.0368 17.7507 10.623 17.6851C11.0872 17.6851 11.5453 17.6853 12.0684 17.7505C12.3312 17.7833 12.4326 17.8457 12.4736 17.9224C12.4953 17.963 12.5076 18.0193 12.5039 18.103C12.5003 18.1857 12.4808 18.2876 12.4492 18.4146C12.2496 18.8188 12.1783 19.2318 12.0508 19.6772L11.999 19.8589L12.1787 19.7993C12.3787 19.7328 12.5318 19.6609 12.6162 19.5767C12.7143 19.4787 12.8248 19.3846 12.9453 19.2729C13.0628 19.1641 13.1833 19.0431 13.2881 18.9038L13.2891 18.9048C13.9552 18.0407 14.6068 17.1964 15.5156 16.6782L15.5215 16.6753C16.2971 16.1594 17.2018 15.9651 18.1074 16.0942L18.1094 16.0952C19.1288 16.2225 19.8262 16.8534 20.082 17.8745L20.083 17.8784C20.1346 18.0501 20.1971 18.1875 20.2725 18.2866C20.3487 18.3868 20.4426 18.4527 20.5537 18.4702C20.6634 18.4875 20.7723 18.4544 20.875 18.3921C20.9776 18.3298 21.0813 18.234 21.1846 18.1138L21.1836 18.1128C21.5163 17.7475 21.8338 17.3662 22.1475 16.9956C22.4626 16.6233 22.7758 16.262 23.1045 15.9341L23.1064 15.9312C23.9596 15.0144 24.9417 14.2958 26.1182 13.8384Z" stroke="black" stroke-width="0.2"/>
<path d="M71.0153 2.05225V2.05322C71.3055 2.08547 71.4484 2.16349 71.5143 2.26514C71.5811 2.36846 71.5912 2.52966 71.527 2.7876C70.2653 7.35958 69.1363 11.9982 68.1403 16.6362V16.6382C67.7919 18.376 67.4419 20.118 67.2262 21.9058L67.1422 22.6753C67.092 23.0778 67.0799 23.4435 67.1051 23.8276L67.1422 24.2085C67.1423 24.5429 67.2077 24.9383 67.6031 25.0962C67.8044 25.1765 67.9709 25.134 68.109 25.0454C68.2371 24.9633 68.3498 24.8338 68.441 24.7427C68.599 24.5851 68.7265 24.5216 68.8405 24.5151C68.9543 24.5088 69.0804 24.5584 69.2379 24.6841L69.2457 24.6899L69.2555 24.6948C69.3051 24.7196 69.3438 24.7578 69.3951 24.8091C69.4394 24.8533 69.4949 24.9078 69.568 24.9487C69.6882 25.0705 69.7544 25.1827 69.774 25.2935C69.7934 25.4027 69.7706 25.5255 69.6832 25.6733C69.0222 26.5967 68.3654 27.3822 67.5143 28.0356C66.9893 28.4285 66.4094 28.7474 65.7721 28.811H65.7711C65.1964 28.8748 64.7015 28.7476 64.3307 28.3159L64.2604 28.2339L64.1842 28.3101C64.0542 28.4398 63.9237 28.5533 63.7906 28.6694C63.6597 28.7838 63.5261 28.9005 63.3922 29.0337C62.0127 30.1472 60.5074 30.7975 58.8082 30.8628C58.1508 30.8625 57.6274 30.7975 57.1715 30.5151C56.715 30.2324 56.311 29.7233 55.9166 28.8052V28.8042L55.8239 28.5835C55.3875 27.4785 55.3361 26.3165 55.4596 25.146V25.1421C55.6576 22.2444 56.5148 19.6112 58.0983 17.1753L58.0992 17.1763C59.0856 15.6671 60.3299 14.5589 62.028 14.0376L62.0299 14.0366C62.4172 13.9078 62.8035 13.8437 63.1891 13.8433C63.4781 13.8759 63.7426 13.9404 63.9733 14.0708C64.2041 14.2013 64.4066 14.401 64.5641 14.7153L64.6871 14.9604L64.7506 14.6938C65.0825 13.3029 65.414 11.9124 65.7457 10.5884L65.7467 10.5854C66.012 9.39427 66.2937 8.21914 66.5758 7.04346C66.8577 5.86868 67.1393 4.69286 67.4049 3.50049L67.4059 3.50146C67.5345 2.98825 67.7833 2.63165 68.1989 2.51318L68.2047 2.51123C69.1248 2.18334 70.0391 1.98801 71.0153 2.05225ZM63.068 16.8813C62.856 16.7853 62.6099 16.7884 62.3561 16.897C62.0674 16.975 61.8529 17.1906 61.6617 17.3813C61.1865 17.8555 60.849 18.3969 60.5797 19.0015L60.5787 19.0024C59.7118 20.9988 59.1784 23.1278 58.9781 25.3228C58.9113 25.9227 58.908 26.6104 59.1871 27.1675C59.2936 27.3798 59.439 27.5452 59.6168 27.6479C59.7956 27.7512 60.0017 27.7872 60.2223 27.7505C60.6402 27.681 61.0627 27.4724 61.3463 27.1187L61.3492 27.1147C61.674 26.6611 62.082 26.1823 62.3522 25.6431C63.2316 23.9457 63.5467 22.0472 63.7448 20.0913L63.8239 19.2495V19.1079C63.8239 18.5835 63.8249 17.9657 63.5494 17.4126H63.5504C63.4436 17.1639 63.2785 16.9768 63.068 16.8813Z" stroke="black" stroke-width="0.2"/>
<path d="M36.6617 19.8687C37.386 19.7374 38.1019 19.674 38.8141 19.8032V19.8022C40.0949 20.0585 40.8688 20.9516 41.3258 22.2544C41.651 23.2949 41.6527 24.4043 41.5865 25.5269V25.5288C41.5206 27.0427 41.257 28.5566 40.7955 30.0044C39.7403 33.0316 37.9653 35.3198 35.0162 36.3667C34.2299 36.6282 33.4471 36.7578 32.6002 36.6929H32.5973C31.9839 36.6606 31.4897 36.4837 31.0934 36.1753C30.6965 35.8663 30.3903 35.4194 30.1627 34.8354H30.1637L30.1578 34.8247C29.6397 33.8553 29.572 32.8181 29.5719 31.6948C29.6379 28.401 30.5627 25.3095 32.5397 22.6792L32.5406 22.6772C33.5898 21.2381 34.9631 20.2603 36.6617 19.8687ZM37.2174 22.6948C37.0262 22.5994 36.8012 22.583 36.5504 22.6538C36.4059 22.6899 36.247 22.7609 36.1071 22.8481C35.9718 22.9325 35.8462 23.0384 35.7682 23.1509C35.4329 23.5523 35.0957 24.0224 34.8258 24.561L34.8248 24.563C33.9485 26.4367 33.4248 28.4272 33.1979 30.478L33.1559 30.8892C33.0892 31.4899 33.0883 32.1666 33.2926 32.7808V32.7817C33.3974 33.1302 33.5773 33.373 33.8248 33.4966C34.0717 33.6197 34.3668 33.6148 34.6813 33.5103L34.6803 33.5093C34.9624 33.4376 35.1735 33.2958 35.3785 33.0923L35.3795 33.0933C35.9221 32.6195 36.3277 32.0117 36.5983 31.3394C37.5367 29.3998 37.8033 27.1969 37.9362 25.0093V24.7388L37.9225 24.3433C37.8938 23.9563 37.8166 23.5872 37.6637 23.1802L37.5709 23.2153L37.6647 23.1792L37.6598 23.1704L37.5729 23.02C37.478 22.8788 37.3602 22.7662 37.2174 22.6948Z" stroke="black" stroke-width="0.2"/>
<path d="M51.1058 16.8901H51.1078C51.8491 16.9223 52.4738 17.1792 52.9701 17.6265C53.4673 18.0746 53.8402 18.7187 54.0687 19.5327L54.0726 19.5415C54.3982 20.3861 54.4633 21.1674 54.4633 22.0229H54.4642C54.3315 25.0603 53.801 27.8831 52.0267 30.3091L52.0258 30.311C50.4466 32.543 48.3504 33.9115 45.6693 33.9116C44.8898 33.9116 44.2654 33.717 43.7806 33.3364C43.2954 32.9554 42.9396 32.3798 42.7113 31.5991V31.5972L42.6029 31.2026C42.3844 30.2777 42.3832 29.3059 42.3832 28.3198C42.5069 25.7897 43.2105 23.3758 44.4388 21.2407L44.6918 20.8169C45.6137 19.3056 46.7287 18.1306 48.2972 17.4126C49.2149 17.0202 50.1287 16.8251 51.1058 16.8901ZM49.9701 20.0005C49.6058 19.8572 49.1686 19.9815 48.724 20.3569L48.7181 20.3628C48.6944 20.3864 48.6778 20.3927 48.642 20.4165C48.6266 20.4267 48.6034 20.4435 48.5853 20.4692C48.5731 20.4867 48.5655 20.5058 48.5609 20.5259C48.4323 20.7171 48.2897 20.9084 48.1429 21.1118C47.9932 21.3193 47.8417 21.5378 47.7064 21.7739L47.7035 21.7798C46.7012 23.78 46.17 25.9539 45.9427 28.1899L45.9008 28.6382C45.8335 29.2462 45.9016 29.7931 46.1742 30.3403V30.3413C46.2805 30.5888 46.4275 30.759 46.6195 30.855C46.81 30.95 47.0321 30.9658 47.2758 30.9312L47.2787 30.9302C47.701 30.8599 48.0511 30.6493 48.3285 30.3726C48.872 29.8302 49.2103 29.2213 49.4789 28.5513L49.4779 28.5503C50.3468 26.5482 50.6137 24.482 50.8129 22.23L50.8148 22.2163L50.8119 22.2017C50.78 22.0425 50.7641 21.8656 50.7474 21.6743C50.731 21.4851 50.7139 21.2826 50.6801 21.0796V21.0786L50.6791 21.0767C50.5766 20.5319 50.3316 20.1429 49.9701 20.0005Z" stroke="black" stroke-width="0.2"/>
</svg>
